<svg id="visual" viewBox="0 0 900 600" width="900" height="600" xmlns="http://www.w3.org/2000/svg" xmlns:xlink="http://www.w3.org/1999/xlink" version="1.1"><rect x="0" y="0" width="900" height="600" fill="#99e9fc"></rect><path d="M0 527L15 515.8C30 504.7 60 482.3 90 478.5C120 474.7 150 489.3 180 499.3C210 509.3 240 514.7 270 520C300 525.3 330 530.7 360 517.5C390 504.3 420 472.7 450 461C480 449.3 510 457.7 540 464.7C570 471.7 600 477.3 630 486.7C660 496 690 509 720 508.8C750 508.7 780 495.3 810 485.5C840 475.7 870 469.3 885 466.2L900 463L900 601L885 601C870 601 840 601 810 601C780 601 750 601 720 601C690 601 660 601 630 601C600 601 570 601 540 601C510 601 480 601 450 601C420 601 390 601 360 601C330 601 300 601 270 601C240 601 210 601 180 601C150 601 120 601 90 601C60 601 30 601 15 601L0 601Z" fill="#fae4b5"></path><path d="M0 498L15 500.7C30 503.3 60 508.7 90 503.3C120 498 150 482 180 473.3C210 464.7 240 463.3 270 462.2C300 461 330 460 360 466.8C390 473.7 420 488.3 450 488.7C480 489 510 475 540 468C570 461 600 461 630 467.7C660 474.3 690 487.7 720 501.2C750 514.7 780 528.3 810 529.8C840 531.3 870 520.7 885 515.3L900 510L900 601L885 601C870 601 840 601 810 601C780 601 750 601 720 601C690 601 660 601 630 601C600 601 570 601 540 601C510 601 480 601 450 601C420 601 390 601 360 601C330 601 300 601 270 601C240 601 210 601 180 601C150 601 120 601 90 601C60 601 30 601 15 601L0 601Z" fill="#fceac7"></path><path d="M0 489L15 494.2C30 499.3 60 509.7 90 515.7C120 521.7 150 523.3 180 522.7C210 522 240 519 270 512.8C300 506.7 330 497.3 360 495.3C390 493.3 420 498.7 450 505.2C480 511.7 510 519.3 540 515.7C570 512 600 497 630 493C660 489 690 496 720 500.8C750 505.7 780 508.3 810 512.8C840 517.3 870 523.7 885 526.8L900 530L900 601L885 601C870 601 840 601 810 601C780 601 750 601 720 601C690 601 660 601 630 601C600 601 570 601 540 601C510 601 480 601 450 601C420 601 390 601 360 601C330 601 300 601 270 601C240 601 210 601 180 601C150 601 120 601 90 601C60 601 30 601 15 601L0 601Z" fill="#fef1da"></path><path d="M0 516L15 523C30 530 60 544 90 547.7C120 551.3 150 544.7 180 545.5C210 546.3 240 554.7 270 553.2C300 551.7 330 540.3 360 537.5C390 534.7 420 540.3 450 546C480 551.7 510 557.3 540 556.5C570 555.7 600 548.3 630 549C660 549.7 690 558.3 720 562C750 565.7 780 564.3 810 556C840 547.7 870 532.3 885 524.7L900 517L900 601L885 601C870 601 840 601 810 601C780 601 750 601 720 601C690 601 660 601 630 601C600 601 570 601 540 601C510 601 480 601 450 601C420 601 390 601 360 601C330 601 300 601 270 601C240 601 210 601 180 601C150 601 120 601 90 601C60 601 30 601 15 601L0 601Z" fill="#fff8ec"></path><path d="M0 558L15 557.8C30 557.7 60 557.3 90 555.3C120 553.3 150 549.7 180 548C210 546.3 240 546.7 270 547.8C300 549 330 551 360 551.8C390 552.7 420 552.3 450 556.2C480 560 510 568 540 571C570 574 600 572 630 567C660 562 690 554 720 554.8C750 555.7 780 565.3 810 566.2C840 567 870 559 885 555L900 551L900 601L885 601C870 601 840 601 810 601C780 601 750 601 720 601C690 601 660 601 630 601C600 601 570 601 540 601C510 601 480 601 450 601C420 601 390 601 360 601C330 601 300 601 270 601C240 601 210 601 180 601C150 601 120 601 90 601C60 601 30 601 15 601L0 601Z" fill="#ffffff"></path></svg>