<svg width="42" height="58" viewBox="0 0 42 58" fill="none" xmlns="http://www.w3.org/2000/svg">
<path d="M2.25995 37.2603C2.25995 42.2304 4.23445 46.9973 7.74887 50.5119C11.2633 54.0262 16.0298 56 21 56C25.9701 56 30.7367 54.0262 34.2513 50.5119C37.7656 46.9973 39.74 42.2304 39.74 37.2603V21.1975C39.74 16.2273 37.7656 11.4608 34.2513 7.94638C30.7367 4.43196 25.9701 2.45746 21 2.45746C16.0298 2.45746 11.2633 4.43196 7.74887 7.94638C4.23445 11.4608 2.25995 16.2273 2.25995 21.1975V37.2603Z" stroke="#4b94e3" stroke-width="3" stroke-linecap="round" stroke-linejoin="round"/>
<path d="M21 13.166V34.5831" stroke="#4b94e3" stroke-width="3" stroke-linecap="round" stroke-linejoin="round"/>
<path d="M29.0314 26.5518L21 34.5832L12.9685 26.5518" stroke="#4b94e3" stroke-width="3" stroke-linecap="round" stroke-linejoin="round"/>
</svg>
