<svg width="48" height="48" viewBox="0 0 48 48" fill="none" xmlns="http://www.w3.org/2000/svg">
<path d="M29.0981 16.2109C27.2065 17.8235 25.1831 20.9549 24.2315 22.94C24.1309 23.1499 23.8683 23.1499 23.7676 22.94C22.8161 20.9549 20.7927 17.8235 18.9011 16.2109C17.4128 14.942 15 13.9601 15 17.085C15 17.7092 15.315 22.3269 15.4999 23.0775C15.9957 25.0923 17.5077 25.9469 19.1302 26.0454C19.2856 26.0547 19.3118 26.2878 19.1654 26.3463C16.7206 27.3199 16.287 29.3152 18.0003 31.3105C21.1306 34.9277 22.7572 31.9115 23.5091 29.9041C23.6924 29.4164 24.3085 29.4164 24.4909 29.9041C25.2436 31.9115 26.8694 34.9277 29.9997 31.3105C31.7122 29.3152 31.2794 27.3199 28.8346 26.3463C28.6882 26.2878 28.7152 26.0556 28.8698 26.0454C30.4923 25.9469 32.0035 25.0923 32.5001 23.0775C32.685 22.3278 33 17.7092 33 17.085C33 13.9601 30.5872 14.942 29.0981 16.2109Z" fill="#333"/>
<rect x="10.5" y="10.5" width="27" height="27" rx="2.5" stroke="#333" stroke-width="3"/>
</svg>
