<svg xmlns="http://www.w3.org/2000/svg"  viewBox="0 0 64 64" width="48px" height="48px"><path d="M 23.773438 12 C 12.855437 12 12 12.854437 12 23.773438 L 12 40.226562 C 12 51.144563 12.855438 52 23.773438 52 L 40.226562 52 C 51.144563 52 52 51.145563 52 40.226562 L 52 23.773438 C 52 12.854437 51.145563 12 40.226562 12 L 23.773438 12 z M 21.167969 16 L 42.832031 16 C 47.625031 16 48 16.374969 48 21.167969 L 48 42.832031 C 48 47.625031 47.624031 48 42.832031 48 L 21.167969 48 C 16.374969 48 16 47.624031 16 42.832031 L 16 21.167969 C 16 16.374969 16.374969 16 21.167969 16 z M 37.935547 22.806641 C 35.095547 22.806641 32.792969 25.110219 32.792969 27.949219 C 32.792969 28.353219 32.925781 29.121094 32.925781 29.121094 C 32.925781 29.121094 26.719172 29.158047 22.326172 23.748047 C 22.326172 23.748047 21.651812 24.651984 21.632812 26.333984 C 21.599812 29.184984 23.917969 30.613281 23.917969 30.613281 C 23.917969 30.613281 22.752844 30.644703 21.589844 29.970703 C 21.694844 34.386703 25.714844 35.076172 25.714844 35.076172 C 25.714844 35.076172 24.415578 35.325063 23.392578 35.164062 C 24.047578 37.206063 25.945312 38.694328 28.195312 38.736328 C 26.436312 40.116328 23.844031 41.235234 20.582031 40.865234 C 21.776031 42.158234 25.560844 43.175781 28.464844 43.175781 C 37.921844 43.175781 43.09375 35.341875 43.09375 28.546875 C 43.09375 28.324875 43.088125 28.102812 43.078125 27.882812 C 44.084125 27.155812 44.957484 26.249797 45.646484 25.216797 C 44.243484 25.853797 42.693359 26.027344 42.693359 26.027344 C 42.693359 26.027344 44.505125 24.979594 44.953125 23.183594 C 43.960125 23.772594 42.8595 24.200641 41.6875 24.431641 C 40.7495 23.432641 39.413547 22.806641 37.935547 22.806641 z" fill="#333" /></svg>