<svg width="182" height="182" viewBox="0 0 182 182" fill="none" xmlns="http://www.w3.org/2000/svg">
<path d="M7.89251 69.9322C25.8002 -0.707739 41.4243 -10.0152 112.068 7.89251C182.708 25.8002 192.015 41.4243 174.107 112.068C156.2 182.708 140.576 192.015 69.9322 174.107C-0.707739 156.2 -10.0152 140.576 7.89251 69.9322Z" fill="#FFDD92"/>
<mask id="mask0_15_624" style="mask-type:luminance" maskUnits="userSpaceOnUse" x="0" y="0" width="182" height="182">
<path d="M7.89251 69.9322C25.8002 -0.707739 41.4243 -10.0152 112.068 7.89251C182.708 25.8002 192.015 41.4243 174.107 112.068C156.2 182.708 140.576 192.015 69.9322 174.107C-0.707739 156.2 -10.0152 140.576 7.89251 69.9322Z" fill="white"/>
</mask>
<g mask="url(#mask0_15_624)">
<path d="M7.89251 73.2471C25.8002 2.6072 41.4243 -6.70022 112.068 11.2075C182.708 29.1151 192.015 44.7392 174.107 115.383C156.2 186.023 140.576 195.33 69.9322 177.422C-0.707739 159.515 -10.0152 143.891 7.89251 73.2471Z" fill="#F9C441"/>
<path d="M181.514 56.1902C182.269 69.2655 179.33 85.9577 173.739 108.016C155.831 178.656 140.207 187.964 69.5638 170.056C23.3287 158.336 3.36951 147.592 0.117249 121.758C1.77837 150.554 21.3508 161.791 69.9321 174.108C140.572 192.015 156.2 182.708 174.107 112.068C180.295 87.663 183.231 69.8254 181.514 56.1902Z" fill="#EAA22D"/>
</g>
<path d="M54.1129 93.2026C51.9472 93.2026 49.5126 91.442 49.1111 89.2726C46.706 76.6761 53.6635 64.0796 51.2584 51.4831C50.8532 49.3137 51.9398 47.5531 54.1129 47.5531C56.2786 47.5531 58.7132 49.3137 59.1146 51.4831C61.5198 64.0796 54.5622 76.6761 56.9673 89.2726C57.3725 91.442 56.286 93.2026 54.1129 93.2026Z" fill="#EAA22D"/>
<path d="M142.848 147.22H142.171C140.189 147.22 138.189 145.614 137.865 143.629C134.355 122.51 142.804 101.394 139.298 80.2745C138.97 78.2929 140.189 76.6833 142.171 76.6833H142.848C144.83 76.6833 146.83 78.2892 147.154 80.2745C150.664 101.394 142.215 122.51 145.721 143.629C146.049 145.611 144.83 147.22 142.848 147.22Z" fill="#EAA22D"/>
<path d="M54.8495 55.2915C61.7657 55.2915 67.3724 49.6849 67.3724 42.7687C67.3724 35.8525 61.7657 30.2458 54.8495 30.2458C47.9333 30.2458 42.3267 35.8525 42.3267 42.7687C42.3267 49.6849 47.9333 55.2915 54.8495 55.2915Z" fill="#EAA22D"/>
<path d="M142.509 83.6852C149.426 83.6852 155.032 78.0785 155.032 71.1624C155.032 64.2462 149.426 58.6395 142.509 58.6395C135.593 58.6395 129.987 64.2462 129.987 71.1624C129.987 78.0785 135.593 83.6852 142.509 83.6852Z" fill="#EAA22D"/>
<path d="M53.7446 90.9927C51.5789 90.9927 49.1443 89.2321 48.7428 87.0628C46.3377 74.4662 53.2952 61.8697 50.8901 49.2732C50.485 47.1038 51.5715 45.3433 53.7446 45.3433C55.9103 45.3433 58.3449 47.1038 58.7464 49.2732C61.1515 61.8697 54.1939 74.4662 56.5991 87.0628C57.0042 89.2321 55.9177 90.9927 53.7446 90.9927Z" fill="#2696EA"/>
<path d="M142.48 145.01C142.255 145.01 142.027 145.01 141.802 145.01C139.821 145.01 137.824 143.405 137.497 141.419C133.987 120.3 142.436 99.1842 138.929 78.0647C138.602 76.0832 139.821 74.4736 141.802 74.4736H142.48C144.462 74.4736 146.458 76.0795 146.786 78.0647C150.296 99.1842 141.846 120.3 145.353 141.419C145.681 143.401 144.462 145.01 142.48 145.01Z" fill="#2696EA"/>
<path d="M54.4812 53.0816C61.3974 53.0816 67.0041 47.4749 67.0041 40.5587C67.0041 33.6426 61.3974 28.0359 54.4812 28.0359C47.565 28.0359 41.9584 33.6426 41.9584 40.5587C41.9584 47.4749 47.565 53.0816 54.4812 53.0816Z" fill="#5B2500"/>
<path d="M142.141 81.4753C149.057 81.4753 154.664 75.8686 154.664 68.9524C154.664 62.0362 149.057 56.4296 142.141 56.4296C135.225 56.4296 129.618 62.0362 129.618 68.9524C129.618 75.8686 135.225 81.4753 142.141 81.4753Z" fill="#5B2500"/>
<path d="M97.5782 80.0536C95.755 80.0536 93.7992 79.8326 91.7551 79.2801C82.4329 76.7608 78.1825 69.3576 77.1033 67.1477C76.3004 65.505 76.9818 63.5198 78.6245 62.7131C80.2709 61.9102 82.2561 62.5916 83.0591 64.2343C83.6079 65.354 86.687 71.0408 93.4862 72.8787C99.6813 74.5546 104.749 71.9432 106.156 71.1035C107.729 70.1642 109.762 70.6762 110.701 72.2489C111.641 73.8216 111.129 75.8548 109.556 76.794C108.046 77.6964 103.523 80.0536 97.5782 80.0536Z" fill="#EF8E35"/>
<mask id="mask1_15_624" style="mask-type:luminance" maskUnits="userSpaceOnUse" x="76" y="62" width="36" height="19">
<path d="M97.5782 80.0536C95.755 80.0536 93.7992 79.8326 91.7551 79.2801C82.4329 76.7608 78.1825 69.3576 77.1033 67.1477C76.3004 65.505 76.9818 63.5198 78.6245 62.7131C80.2709 61.9102 82.2561 62.5916 83.0591 64.2343C83.6079 65.354 86.687 71.0408 93.4862 72.8787C99.6813 74.5546 104.749 71.9432 106.156 71.1035C107.729 70.1642 109.762 70.6762 110.701 72.2489C111.641 73.8216 111.129 75.8548 109.556 76.794C108.046 77.6964 103.523 80.0536 97.5782 80.0536Z" fill="white"/>
</mask>
<g mask="url(#mask1_15_624)">
<path d="M97.5745 79.1807C95.7513 79.1807 93.7955 78.9597 91.7513 78.4072C82.4292 75.8879 78.1788 68.4847 77.0996 66.2748C76.2967 64.6321 76.9781 62.6468 78.6208 61.8402C80.2672 61.0373 82.2524 61.7187 83.0553 63.3614C83.6041 64.4811 86.6833 70.1679 93.4824 72.0058C99.6776 73.6817 104.746 71.0703 106.153 70.2305C107.725 69.2913 109.758 69.8033 110.698 71.376C111.637 72.9487 111.125 74.9818 109.552 75.9211C108.042 76.8234 103.519 79.1807 97.5745 79.1807Z" fill="#C67012"/>
<path d="M78.3814 63.2803C80.0535 62.4627 82.0682 63.1551 82.8859 64.8273C83.4421 65.9654 86.5691 71.7406 93.4751 73.608C99.766 75.3096 104.915 72.6577 106.344 71.8032C107.939 70.8493 110.009 71.3686 110.963 72.9671C111.184 73.3354 111.324 73.7332 111.39 74.1347C111.519 73.3723 111.39 72.562 110.963 71.8474C110.009 70.2526 107.943 69.7296 106.344 70.6835C104.915 71.538 99.7697 74.1899 93.4751 72.4883C86.5691 70.6209 83.4421 64.8457 82.8859 63.7076C82.0682 62.0354 80.0535 61.3467 78.3814 62.1606C77.0075 62.831 76.2967 64.3153 76.5435 65.7518C76.7166 64.7168 77.3685 63.7813 78.3814 63.284V63.2803Z" fill="#AF5D0B"/>
</g>
<path d="M150.034 64.8505C150.681 62.9047 148.36 60.382 144.85 59.2159C141.341 58.0498 137.972 58.6819 137.325 60.6278C136.679 62.5736 139 65.0963 142.509 66.2624C146.019 67.4285 149.388 66.7964 150.034 64.8505Z" fill="#A57146"/>
<path d="M62.6263 37.3522C63.2728 35.4064 60.9519 32.8837 57.4425 31.7176C53.933 30.5515 50.5639 31.1836 49.9174 33.1295C49.2708 35.0753 51.5917 37.598 55.1012 38.7641C58.6106 39.9302 61.9797 39.2981 62.6263 37.3522Z" fill="#A57146"/>
</svg>
